<svg xmlns="http://www.w3.org/2000/svg" viewBox="0 0 720 260" width="720" height="260" role="img" aria-labelledby="title desc">
  <title id="title">OpenReign-pro project card</title>
  <desc id="desc">Dark glass project card for the OpenReign-pro repository.</desc>
  <defs>
    <linearGradient id="cardBg" x1="0" y1="0" x2="1" y2="1">
      <stop offset="0" stop-color="#111827" stop-opacity="0.96" />
      <stop offset="0.55" stop-color="#0d1117" stop-opacity="0.98" />
      <stop offset="1" stop-color="#07111f" stop-opacity="0.96" />
    </linearGradient>
    <radialGradient id="glow" cx="80%" cy="22%" r="70%">
      <stop offset="0" stop-color="#00d4ff" stop-opacity="0.32" />
      <stop offset="1" stop-color="#00d4ff" stop-opacity="0" />
    </radialGradient>
    <filter id="softGlow" x="-30%" y="-30%" width="160%" height="160%">
      <feGaussianBlur stdDeviation="12" result="blur" />
      <feColorMatrix in="blur" type="matrix" values="0 0 0 0 0 0 0 0 0 .83 0 0 0 0 1 0 0 0 .42 0" />
      <feBlend in="SourceGraphic" mode="screen" />
    </filter>
    <style>
      text { font-family: ui-monospace, SFMono-Regular, Menlo, Monaco, Consolas, "Liberation Mono", "Courier New", monospace; }
    </style>
  </defs>

  <rect x="8" y="8" width="704" height="244" rx="24" fill="url(#cardBg)" />
  <rect x="8" y="8" width="704" height="244" rx="24" fill="url(#glow)" />
  <rect x="9" y="9" width="702" height="242" rx="24" fill="none" stroke="#00d4ff" stroke-opacity="0.24" />

  <g transform="translate(52 54)">
    <rect width="68" height="68" rx="18" fill="#00d4ff" fill-opacity="0.12" stroke="#00d4ff" stroke-opacity="0.36" />
    <path d="M22 42 L34 20 L46 42 M28 34 H40" fill="none" stroke="#7dd3fc" stroke-width="5" stroke-linecap="round" stroke-linejoin="round" />
  </g>

  <text x="146" y="82" font-size="32" font-weight="800" fill="#f0f6fc">OpenReign-pro</text>
  <text x="146" y="116" font-size="17" fill="#8b949e">JavaScript project in active testing</text>
  <text x="146" y="146" font-size="15" fill="#c9d1d9">A public workspace for experimenting, improving, and shipping.</text>

  <g transform="translate(146 178)">
    <rect width="132" height="32" rx="16" fill="#f7df1e" fill-opacity="0.12" stroke="#f7df1e" stroke-opacity="0.35" />
    <circle cx="19" cy="16" r="5" fill="#f7df1e" />
    <text x="34" y="21" font-size="14" fill="#f0f6fc">JavaScript</text>
  </g>

  <g transform="translate(298 178)">
    <rect width="116" height="32" rx="16" fill="#7c3aed" fill-opacity="0.12" stroke="#7c3aed" stroke-opacity="0.35" />
    <text x="18" y="21" font-size="14" fill="#f0f6fc">Public repo</text>
  </g>

  <g filter="url(#softGlow)">
    <circle cx="560" cy="132" r="46" fill="none" stroke="#00d4ff" stroke-width="2" stroke-dasharray="8 12" opacity="0.74" />
    <circle cx="606" cy="132" r="5" fill="#00d4ff" />
  </g>
  <circle cx="560" cy="132" r="18" fill="#7c3aed" fill-opacity="0.3" stroke="#a78bfa" stroke-opacity="0.72" />
  <path d="M520 194 C570 166 610 170 660 204" fill="none" stroke="#00d4ff" stroke-opacity="0.34" stroke-width="2" />
  <text x="660" y="214" font-size="18" fill="#e3b341" text-anchor="end">★</text>
</svg>
